<svg width="200" height="60" viewBox="0 0 200 60" xmlns="http://www.w3.org/2000/svg">
  <defs>
    <linearGradient id="digitalGradient" x1="0%" y1="0%" x2="100%" y2="0%">
      <stop offset="0%" style="stop-color:#0d9488; stop-opacity:1" />
      <stop offset="100%" style="stop-color:#2dd4bf; stop-opacity:1" />
    </linearGradient>
    <mask id="digitalMask">
      <rect width="100%" height="100%" fill="white"/>
      <g transform="translate(25, 0)">
        <line x1="0" y1="5" x2="20" y2="5" stroke="black" stroke-width="2"/>
        <line x1="0" y1="12" x2="20" y2="12" stroke="black" stroke-width="2"/>
        <line x1="0" y1="19" x2="20" y2="19" stroke="black" stroke-width="2"/>
        <line x1="0" y1="26" x2="20" y2="26" stroke="black" stroke-width="2"/>
        <line x1="0" y1="33" x2="20" y2="33" stroke="black" stroke-width="2"/>
        <line x1="0" y1="40" x2="20" y2="40" stroke="black" stroke-width="2"/>
        <line x1="0" y1="47" x2="20" y2="47" stroke="black" stroke-width="2"/>
      </g>
    </mask>
  </defs>

  <g transform="translate(5, 5)">
    <path d="M 20 0 C 5 5, 0 20, 5 35 C 10 50, 20 50, 20 50" fill="#0f766e" />
    <path d="M 20 0 C 35 5, 40 20, 35 35 C 30 50, 20 50, 20 50" fill="url(#digitalGradient)" mask="url(#digitalMask)"/>
  </g>
  
  <text x="58" y="38" font-family="Poppins, Inter, sans-serif" font-size="24" fill="#ffffffff">
    <tspan font-weight="400">Leaf</tspan><tspan font-weight="700">Genn</tspan>
  </text>
</svg>